PathFileType	4	(X/Y/Z)	./resultDataOpenSim/trcMotMarkerGrf/sub06/qtm-03-04.trc
DataRate	CameraRate	NumFrames	NumMarkers	Units	OrigDataRate	OrigDataStartFrame	OrigNumFrames
250.000000	250.000000	6	24	m	250.000000	246	490
Frame#	Time	L.Toe.Tip			R.Toe.Tip			L.Ankle.Lat			R.Ankle.Lat			L.Ankle.Med			R.Ankle.Med			L.Heel			R.Heel			L.Knee.Lat			R.Knee.Lat			L.Knee.Med			R.Knee.Med			L.Thigh.Upper			R.Thigh.Upper			L.ASIS			R.ASIS			V.Sacral			L.Acromium			R.Acromium			C7			L.Elbow			R.Elbow			L.Wrist.Lat			R.Wrist.Lat
		X1	Y1	Z1	X2	Y2	Z2	X3	Y3	Z3	X4	Y4	Z4	X5	Y5	Z5	X6	Y6	Z6	X7	Y7	Z7	X8	Y8	Z8	X9	Y9	Z9	X10	Y10	Z10	X11	Y11	Z11	X12	Y12	Z12	X13	Y13	Z13	X14	Y14	Z14	X15	Y15	Z15	X16	Y16	Z16	X17	Y17	Z17	X18	Y18	Z18	X19	Y19	Z19	X20	Y20	Z20	X21	Y21	Z21	X22	Y22	Z22	X23	Y23	Z23	X24	Y24	Z24

246	0.98	0.059310286	-0.015879282	-0.042928376	0.73209544	0.12019778	0.16749281	-0.052804503	0.043164448	-0.065442171	0.5966259	0.098159214	0.17314447	-0.0490493	0.057066182	0.021507731	0.61775514	0.13260963	0.09086299	-0.13021502	0.032997561	-0.019698235	0.56396172	0.062518516	0.1035553	0.098583531	0.38227549	-0.078832189	0.48348344	0.47430671	0.18338679	0.081677926	0.38365813	0.043621992	0.47763227	0.45320128	0.057532015	0.21167675	0.74892883	-0.14097036	0.24636789	0.76492607	0.21391315	0.30066287	0.79034571	-0.10149213	0.326121	0.81057861	0.14215929	0.12900026	0.87830267	0.040230076	0.28531876	1.2843227	-0.15311255	0.27885689	1.2702604	0.21038995	0.20607083	1.316455	0.025493851	0.29647957	0.96530566	-0.24664458	0.12917647	0.99384063	0.26151552	0.52867309	0.87993586	-0.19759526	0.18436217	0.76541074	0.32082751
247	0.984	0.059343138	-0.015894913	-0.042970499	0.74622163	0.12281176	0.16768327	-0.052011846	0.044003102	-0.0657712	0.61100957	0.098201844	0.17357469	-0.0482465	0.057897213	0.021216007	0.63117143	0.13321201	0.091435363	-0.12958827	0.034674413	-0.020157143	0.57873872	0.062134088	0.10428992	0.10247583	0.38176234	-0.078740071	0.49041242	0.47165518	0.183441	0.086236546	0.38303164	0.043558661	0.48491539	0.45038298	0.057211395	0.21698802	0.74773917	-0.14053959	0.25681004	0.76155742	0.21289614	0.30673854	0.78891614	-0.10166847	0.3338049	0.80876294	0.14191541	0.13582923	0.87683407	0.041535764	0.29158075	1.282878	-0.15252075	0.28570896	1.2685228	0.21116678	0.21279008	1.314991	0.026356008	0.30561749	0.96412927	-0.24609369	0.13608093	0.99214982	0.26220476	0.53789781	0.87995383	-0.19635835	0.19036141	0.76374109	0.32195267
248	0.988	0.059380512	-0.01590518	-0.043005714	0.75954341	0.12530934	0.16774786	-0.051176984	0.044909123	-0.066047302	0.62424916	0.098520176	0.17413049	-0.04735882	0.058786988	0.020971009	0.64388139	0.13363304	0.091964099	-0.12889903	0.036443776	-0.020551093	0.5926859	0.061665456	0.10504189	0.10647695	0.38124499	-0.078602947	0.49744811	0.46910494	0.18347158	0.091052281	0.38250472	0.043354696	0.49213559	0.44761619	0.056828816	0.22234328	0.7465717	-0.14000474	0.2672495	0.75820981	0.21186522	0.31271663	0.78747098	-0.10199159	0.34151639	0.8069228	0.14164677	0.14273872	0.87538822	0.042830113	0.29789162	1.2814556	-0.15189745	0.29261713	1.2667878	0.21197196	0.21943571	1.313578	0.027407999	0.31467393	0.96293762	-0.24546355	0.1430635	0.99046087	0.26292541	0.54703337	0.87990031	-0.19511863	0.1963146	0.76198545	0.32302037
249	0.992	0.059423123	-0.015917385	-0.043035575	0.77205173	0.12756973	0.16768913	-0.050284818	0.045881082	-0.066281302	0.63632022	0.099064404	0.17479784	-0.046396405	0.059739268	0.020759043	0.65588891	0.13382504	0.092459743	-0.12814058	0.038313173	-0.020883474	0.60577417	0.061077122	0.10580063	0.11069727	0.3807198	-0.078492472	0.5046172	0.46672156	0.18344228	0.096140778	0.38206565	0.043007284	0.49931177	0.44492555	0.056405423	0.22776565	0.74542166	-0.13939994	0.27748183	0.75516318	0.21109261	0.3185215	0.78604528	-0.10240896	0.34925688	0.80507312	0.14135643	0.14979428	0.87394736	0.044101658	0.30425919	1.2800622	-0.15123717	0.29958458	1.2650642	0.21280753	0.22611108	1.3121958	0.028513184	0.323628	0.96171991	-0.24476477	0.1501179	0.98878033	0.26367465	0.55607765	0.87978317	-0.19386879	0.20232166	0.76020543	0.32407117
250	0.996	0.059473048	-0.015933626	-0.043058569	0.78373352	0.12949168	0.1675105	-0.049319191	0.046917951	-0.066478948	0.64751351	0.099569205	0.17545732	-0.045369491	0.060750813	0.020562536	0.66717482	0.13379384	0.092901128	-0.12730147	0.040287971	-0.021155018	0.61798871	0.060342986	0.10654627	0.11517701	0.38017922	-0.078423245	0.51194669	0.46457063	0.18330275	0.1014215	0.3816636	0.042646197	0.50648878	0.44233948	0.05596979	0.23328326	0.74427761	-0.13876881	0.28733247	0.75260104	0.21075108	0.32417004	0.78469246	-0.10279376	0.35703842	0.80323335	0.141052	0.15716302	0.87246674	0.04531736	0.31068425	1.2787063	-0.15053672	0.30661136	1.2633581	0.21367533	0.23288264	1.3108266	0.029576256	0.33249792	0.96050798	-0.24400215	0.15724283	0.98710977	0.26445202	0.56503371	0.87960363	-0.19260232	0.20854485	0.75847914	0.32516509
251	1	0.059532231	-0.01594974	-0.043072897	0.79458907	0.13099201	0.1672096	-0.048270718	0.048018823	-0.066648232	0.65830891	0.099657453	0.17594407	-0.044269024	0.061819318	0.020373969	0.6777271	0.13355112	0.093227051	-0.12636897	0.042369227	-0.021372417	0.6293345	0.059450789	0.10725474	0.11987332	0.37961836	-0.078364194	0.51944717	0.46269252	0.1830124	0.10677844	0.38123446	0.042442837	0.51369968	0.43989387	0.055537195	0.23891556	0.74313452	-0.13813063	0.29668486	0.75055893	0.21085982	0.32983518	0.78343627	-0.1030735	0.36487667	0.80142497	0.14074244	0.16502076	0.87091495	0.046444638	0.31716834	1.2773974	-0.14979294	0.31369492	1.2616705	0.21457256	0.23974792	1.3094676	0.030598118	0.34129823	0.95933508	-0.24317902	0.16444406	0.98545079	0.26525649	0.57390772	0.87935926	-0.19132491	0.21505519	0.75683256	0.32632531
